<svg width="20" height="20" viewBox="0 0 20 20" fill="none" xmlns="http://www.w3.org/2000/svg">
<g id="fi_10629607" clip-path="url(#clip0_11_34)">
<g id="Group">
<path id="Vector" d="M19.375 10C19.375 10.8 18.3922 11.4594 18.1953 12.1969C17.9922 12.9594 18.5063 14.0219 18.1203 14.6891C17.7281 15.3672 16.5484 15.4484 15.9984 15.9984C15.4484 16.5484 15.3672 17.7281 14.6891 18.1203C14.0219 18.5063 12.9594 17.9922 12.1969 18.1953C11.4594 18.3922 10.8 19.375 10 19.375C9.2 19.375 8.54062 18.3922 7.80312 18.1953C7.04062 17.9922 5.97813 18.5063 5.31094 18.1203C4.63281 17.7281 4.55156 16.5484 4.00156 15.9984C3.45156 15.4484 2.27187 15.3672 1.87969 14.6891C1.49375 14.0219 2.00781 12.9594 1.80469 12.1969C1.60781 11.4594 0.625 10.8 0.625 10C0.625 9.2 1.60781 8.54062 1.80469 7.80312C2.00781 7.04062 1.49375 5.97813 1.87969 5.31094C2.27187 4.63281 3.45156 4.55156 4.00156 4.00156C4.55156 3.45156 4.63281 2.27187 5.31094 1.87969C5.97813 1.49375 7.04062 2.00781 7.80312 1.80469C8.54062 1.60781 9.2 0.625 10 0.625C10.8 0.625 11.4594 1.60781 12.1969 1.80469C12.9594 2.00781 14.0219 1.49375 14.6891 1.87969C15.3672 2.27187 15.4484 3.45156 15.9984 4.00156C16.5484 4.55156 17.7281 4.63281 18.1203 5.31094C18.5063 5.97813 17.9922 7.04062 18.1953 7.80312C18.3922 8.54062 19.375 9.2 19.375 10Z" fill="#2568EF"/>
<path id="Vector_2" d="M12.7094 7.20625L9.14062 10.775L7.29062 8.92656C6.88906 8.525 6.2375 8.525 5.83594 8.92656C5.43437 9.32812 5.43437 9.97969 5.83594 10.3812L8.43125 12.9766C8.82187 13.3672 9.45625 13.3672 9.84687 12.9766L14.1625 8.66093C14.5641 8.25937 14.5641 7.60781 14.1625 7.20625C13.7609 6.80468 13.1109 6.80468 12.7094 7.20625Z" fill="#FFFCEE"/>
</g>
</g>
<defs>
<clipPath id="clip0_11_34">
<rect width="20" height="20" fill="white"/>
</clipPath>
</defs>
</svg>
